# xmcd CD database file
#
# Track frame offsets:
#	150
#	19864
#	31708
#	44670
#	59884
#	84205
#	103261
#	112538
#	131053
#	144960
#
# Disc length: 1996 seconds
#
# Revision: 0
# Processed by: cddbd v1.5.2PL0 Copyright (c) Steve Scherf et al.
# Submitted via: CDex 1.51
#
DISCID=8007ca0a
DTITLE=Melody Gardot - Worrisome Heart
DYEAR=2008
DGENRE=Jazz
TTITLE0=Worrisome Heart
TTITLE1=All That I Need Is Love
TTITLE2=Gone
TTITLE3=Sweet Memory
TTITLE4=Some Lessons
TTITLE5=Quiet Fire
TTITLE6=One Day
TTITLE7=Love Me Like A River Does
TTITLE8=Goodnite
TTITLE9=Twilight
EXTD=YEAR: 2008
EXTT0=
EXTT1=
EXTT2=
EXTT3=
EXTT4=
EXTT5=
EXTT6=
EXTT7=
EXTT8=
EXTT9=
PLAYORDER=
